<svg id="Layer_1" data-name="Layer 1" xmlns="http://www.w3.org/2000/svg" viewBox="0 0 30 30"><defs><style>.cls-1{fill:#fff;}</style></defs><title>AM-W</title><ellipse class="cls-1" cx="15" cy="15" rx="4.2" ry="4.08"/><path class="cls-1" d="M9,15a7.4,7.4,0,0,1,2.27-5.32L8.93,7.39a10.52,10.52,0,0,0,0,15.21l2.36-2.29A7.4,7.4,0,0,1,9,15Z"/><path class="cls-1" d="M3.33,15A12.81,12.81,0,0,1,7.27,5.79L4.92,3.5a15.91,15.91,0,0,0,0,23l2.36-2.29A12.81,12.81,0,0,1,3.33,15Z"/><path class="cls-1" d="M21,15a7.4,7.4,0,0,0-2.27-5.32l2.36-2.29a10.52,10.52,0,0,1,0,15.21l-2.36-2.29A7.4,7.4,0,0,0,21,15Z"/><path class="cls-1" d="M26.67,15a12.81,12.81,0,0,0-3.94-9.21L25.08,3.5a15.91,15.91,0,0,1,0,23l-2.36-2.29A12.81,12.81,0,0,0,26.67,15Z"/></svg>