<svg id="Layer_1" data-name="Layer 1" xmlns="http://www.w3.org/2000/svg" viewBox="0 0 50 50"><defs><style>.cls-1{fill:#cecac8;}</style></defs><title>Building</title><path class="cls-1" d="M3.22,8.1V40.74l8.42,2.41V33.23l6.56,1V45l8.63,2.47V2.5Zm2.62,2.42,4.37-.83v4.86l-4.37.53Zm7-1.33,4.37-.83V13.7l-4.37.53Zm7-1.33L24.2,7v5.84l-4.37.53Zm-14,10,4.37-.34v4.86l-4.37,0Zm7-.55,4.37-.34v5.35l-4.37,0Zm7-.55,4.37-.34v5.84l-4.37,0Zm-14,8.38,4.37.15V30.1l-4.37-.46Zm7,.24,4.37.15v5.35l-4.37-.46Zm7,.24,4.37.15v5.84l-4.37-.46Z"/><path class="cls-1" d="M46.78,15.07l-4.37-.53V9.68l4.37.83Zm-7-.84-4.37-.53V8.35l4.37.83Zm-7-.84-4.37-.53V7l4.37.83Zm14,9-4.37,0V17.46l4.37.34Zm-7-.06-4.37,0V16.91l4.37.34Zm-7-.06-4.37,0V16.37l4.37.34Zm14,7.4-4.37.46V25.24l4.37-.15Zm-7,.73-4.37.46V25.48l4.37-.15Zm-7,.73-4.37.46V25.71l4.37-.15Z"/></svg>