<svg id="Layer_1" data-name="Layer 1" xmlns="http://www.w3.org/2000/svg" viewBox="0 0 32 22"><defs><style>.cls-1{fill:#333;}</style></defs><title>FilterDate</title><path class="cls-1" d="M16.34,2.34a10,10,0,0,1,10,0A10,10,0,0,1,30,6a9.78,9.78,0,0,1,1.34,5A9.77,9.77,0,0,1,30,16a10,10,0,0,1-3.64,3.64,10,10,0,0,1-10,0A10,10,0,0,1,12.7,16a9.77,9.77,0,0,1-1.34-5A9.78,9.78,0,0,1,12.7,6,10,10,0,0,1,16.34,2.34Zm9.93,3.75a6.93,6.93,0,0,0-9.82,0,6.69,6.69,0,0,0-2,4.91,6.69,6.69,0,0,0,2,4.91,6.93,6.93,0,0,0,9.82,0,6.69,6.69,0,0,0,2-4.91A6.69,6.69,0,0,0,26.26,6.09ZM21.36,11h3.36v1.68h-5V6h1.68Z"/><polygon class="cls-1" points="0.64 17.16 3.18 17.16 3.18 5.62 5.75 5.62 5.75 17.16 8.28 17.16 4.46 21 0.64 17.16"/><polygon class="cls-1" points="4.49 4.85 7.03 4.85 7.03 16.39 9.59 16.39 9.59 4.85 12.13 4.85 8.31 1 4.49 4.85"/></svg>