<svg id="Layer_1" data-name="Layer 1" xmlns="http://www.w3.org/2000/svg" viewBox="0 0 18 22"><defs><style>.cls-1{fill:#333;}</style></defs><title>FilterAZ</title><polygon class="cls-1" points="12.81 13.17 17.81 13.17 17.81 16.5 16.16 16.5 16.16 18.17 14.49 18.17 14.49 16.5 16.14 16.5 16.14 14.83 12.81 14.83 12.81 13.17"/><polygon class="cls-1" points="14.47 19.83 17.81 19.83 17.81 21.5 12.81 21.5 12.81 18.17 14.47 18.17 14.47 19.83"/><path class="cls-1" d="M12.81,1.5V9.83h1.67V8.17h1.67V9.83h1.67V1.5Zm3.35,5H14.49V3.17h1.67Z"/><polygon class="cls-1" points="0.2 16.65 2.74 16.65 2.74 5.12 5.3 5.12 5.3 16.65 7.84 16.65 4.02 20.5 0.2 16.65"/><polygon class="cls-1" points="4.05 4.35 6.58 4.35 6.58 15.88 9.15 15.88 9.15 4.35 11.69 4.35 7.87 0.5 4.05 4.35"/></svg>