<svg id="Layer_1" data-name="Layer 1" xmlns="http://www.w3.org/2000/svg" viewBox="0 0 30 30"><defs><style>.cls-1{fill:#fff;}</style></defs><title>IDF-W</title><path class="cls-1" d="M16.18,13.75a2.76,2.76,0,0,0-1.58-1.7,3.47,3.47,0,0,0-1.37-.25H10.91v6.39h2.32a3.5,3.5,0,0,0,1.3-.23,2.86,2.86,0,0,0,1-.65,2.82,2.82,0,0,0,.63-1A3.75,3.75,0,0,0,16.38,15,3.81,3.81,0,0,0,16.18,13.75ZM15,15.83a2,2,0,0,1-.36.67,1.68,1.68,0,0,1-.59.45,1.94,1.94,0,0,1-.81.16H12.15V12.89h1.08A2,2,0,0,1,14,13a1.64,1.64,0,0,1,.6.43,1.89,1.89,0,0,1,.37.67,2.72,2.72,0,0,1,.13.85A2.69,2.69,0,0,1,15,15.83Z"/><rect class="cls-1" x="5.63" y="11.81" width="1.24" height="6.38"/><polygon class="cls-1" points="24.36 12.89 21.31 12.89 21.31 14.54 23.85 14.54 23.85 15.55 21.31 15.55 21.31 18.2 20.07 18.2 20.07 11.8 24.36 11.8 24.36 12.89"/><path class="cls-1" d="M26,10a3,3,0,0,1,3,3v4a3,3,0,0,1-3,3H4a3,3,0,0,1-3-3V13a3,3,0,0,1,3-3H26m0-1H4a4,4,0,0,0-4,4v4a4,4,0,0,0,4,4H26a4,4,0,0,0,4-4V13a4,4,0,0,0-4-4Z"/></svg>