<svg id="Layer_1" data-name="Layer 1" xmlns="http://www.w3.org/2000/svg" viewBox="0 0 30 30"><defs><style>.cls-1{fill:#fff;}</style></defs><title>MDF-W</title><path class="cls-1" d="M17.24,13.48a1.64,1.64,0,0,0-.6-.43,2,2,0,0,0-.81-.15H14.76v4.21h1.08a1.94,1.94,0,0,0,.81-.16,1.68,1.68,0,0,0,.59-.45,2,2,0,0,0,.36-.67,2.69,2.69,0,0,0,.13-.84,2.72,2.72,0,0,0-.13-.85A1.89,1.89,0,0,0,17.24,13.48Z"/><path class="cls-1" d="M26,9H4a4,4,0,0,0-4,4v4a4,4,0,0,0,4,4H26a4,4,0,0,0,4-4V13A4,4,0,0,0,26,9ZM9.48,18.19H8.24V14L6.59,17.11H5.92L4.27,14v4.23H3V11.81H4.36l1.89,3.64,1.91-3.64H9.48Zm9.28-1.89a2.82,2.82,0,0,1-.63,1,2.86,2.86,0,0,1-1,.65,3.5,3.5,0,0,1-1.3.23H13.52V11.81h2.32a3.47,3.47,0,0,1,1.37.25,2.76,2.76,0,0,1,1.58,1.7A3.81,3.81,0,0,1,19,15,3.75,3.75,0,0,1,18.77,16.31ZM27,12.89H23.92v1.65h2.54v1H23.92v2.65H22.68V11.81H27Z"/></svg>