<svg id="Layer_1" data-name="Layer 1" xmlns="http://www.w3.org/2000/svg" viewBox="0 0 30 30"><defs><style>.cls-1{fill:#fff;}</style></defs><title>MDFIDF-W</title><path class="cls-1" d="M17.24,6.48a1.64,1.64,0,0,0-.6-.43,2,2,0,0,0-.81-.15H14.76v4.21h1.08a1.94,1.94,0,0,0,.81-.16,1.68,1.68,0,0,0,.59-.45,2,2,0,0,0,.36-.67A2.69,2.69,0,0,0,17.74,8a2.72,2.72,0,0,0-.13-.85A1.89,1.89,0,0,0,17.24,6.48Z"/><path class="cls-1" d="M26,2H4A4,4,0,0,0,0,6v4a4,4,0,0,0,4,4H26a4,4,0,0,0,4-4V6A4,4,0,0,0,26,2ZM9.48,11.19H8.24V7L6.59,10.11H5.92L4.27,7v4.23H3V4.81H4.36L6.25,8.44,8.16,4.81H9.48Zm9.28-1.89a2.82,2.82,0,0,1-.63,1,2.86,2.86,0,0,1-1,.65,3.5,3.5,0,0,1-1.3.23H13.52V4.81h2.32a3.47,3.47,0,0,1,1.37.25,2.76,2.76,0,0,1,1.58,1.7A3.81,3.81,0,0,1,19,8,3.75,3.75,0,0,1,18.77,9.31ZM27,5.89H23.92V7.54h2.54v1H23.92v2.65H22.68V4.81H27Z"/><path class="cls-1" d="M16.18,20.75a2.76,2.76,0,0,0-1.58-1.7,3.47,3.47,0,0,0-1.37-.25H10.91v6.39h2.32a3.5,3.5,0,0,0,1.3-.23,2.86,2.86,0,0,0,1-.65,2.82,2.82,0,0,0,.63-1A3.75,3.75,0,0,0,16.38,22,3.81,3.81,0,0,0,16.18,20.75ZM15,22.83a2,2,0,0,1-.36.67,1.68,1.68,0,0,1-.59.45,1.94,1.94,0,0,1-.81.16H12.15V19.89h1.08A2,2,0,0,1,14,20a1.64,1.64,0,0,1,.6.43,1.89,1.89,0,0,1,.37.67,2.72,2.72,0,0,1,.13.85A2.69,2.69,0,0,1,15,22.83Z"/><rect class="cls-1" x="5.63" y="18.81" width="1.24" height="6.38"/><polygon class="cls-1" points="24.36 19.89 21.31 19.89 21.31 21.54 23.85 21.54 23.85 22.55 21.31 22.55 21.31 25.2 20.07 25.2 20.07 18.8 24.36 18.8 24.36 19.89"/><path class="cls-1" d="M26,17a3,3,0,0,1,3,3v4a3,3,0,0,1-3,3H4a3,3,0,0,1-3-3V20a3,3,0,0,1,3-3H26m0-1H4a4,4,0,0,0-4,4v4a4,4,0,0,0,4,4H26a4,4,0,0,0,4-4V20a4,4,0,0,0-4-4Z"/></svg>