<svg id="Layer_1" data-name="Layer 1" xmlns="http://www.w3.org/2000/svg" viewBox="0 0 30 30"><defs><style>.cls-1{fill:#333;}</style></defs><title>Move</title><polygon class="cls-1" points="11.99 6.37 8.63 6.37 15 0 21.37 6.37 18.01 6.37 18.01 10.49 11.99 10.49 11.99 6.37"/><polygon class="cls-1" points="18.01 23.63 21.37 23.63 15 30 8.63 23.63 11.99 23.63 11.99 19.51 18.01 19.51 18.01 23.63"/><polygon class="cls-1" points="23.63 11.99 23.63 8.63 30 15 23.63 21.37 23.63 18.01 19.51 18.01 19.51 11.99 23.63 11.99"/><polygon class="cls-1" points="6.37 18.01 6.37 21.37 0 15 6.37 8.63 6.37 11.99 10.49 11.99 10.49 18.01 6.37 18.01"/></svg>