<svg id="Layer_1" data-name="Layer 1" xmlns="http://www.w3.org/2000/svg" viewBox="0 0 30 30"><defs><style>.cls-1{fill:#333;}</style></defs><title>NewFloor</title><polygon class="cls-1" points="25.74 13.75 27.67 15 15 23.17 2.33 15 4.26 13.75 3.1 13 0 15 15 24.67 30 15 26.9 13 25.74 13.75"/><polygon class="cls-1" points="25.74 19.08 27.67 20.33 15 28.5 2.33 20.33 4.26 19.08 3.1 18.33 0 20.33 15 30 30 20.33 26.9 18.33 25.74 19.08"/><path class="cls-1" d="M15,0,0,9.67l15,9.67L30,9.67Zm1.78,10.46V14H13.22V10.46H9.67V6.91h3.55V3.36h3.55V6.91h3.55v3.55Z"/></svg>