<svg id="Layer_1" data-name="Layer 1" xmlns="http://www.w3.org/2000/svg" viewBox="0 0 50 50"><defs><style>.cls-1{fill:#cecac8;}</style></defs><title>Project</title><path class="cls-1" d="M44.51,18a5.5,5.5,0,0,0-8.93,6.07L16.1,36.3l-.21-.24L36.61,12.62a5.5,5.5,0,1,0-1.24-1.1L14.66,35a6.8,6.8,0,0,0-.76-.45L21,15.24a5.54,5.54,0,0,0,1.11.11,5.54,5.54,0,1,0-2.66-.69L12.35,33.94a6.91,6.91,0,0,0-1.59-.19,6.87,6.87,0,1,0,6.87,6.87c0-.17,0-.35,0-.52L29.8,37.68a5.52,5.52,0,1,0-.32-1.62L17.29,38.49A6.78,6.78,0,0,0,17,37.7L36.46,25.49c.09.1.18.21.27.3A5.5,5.5,0,0,0,44.51,18ZM36,7.7a3.63,3.63,0,0,1,.09-.57l0-.07a3.59,3.59,0,0,1,.18-.53l0-.08A3.57,3.57,0,0,1,36.61,6l0-.06a3.61,3.61,0,1,1,5.08,5l-.08.06a3.58,3.58,0,0,1-.44.26l-.08,0a3.6,3.6,0,0,1-.46.18h0a3.62,3.62,0,0,1-.5.11h-.09a3.64,3.64,0,0,1-.51,0h0a3.63,3.63,0,0,1-.51,0h0a3.61,3.61,0,0,1-.51-.13l-.07,0a3.55,3.55,0,0,1-2.05-1.86h0A3.62,3.62,0,0,1,36,7.72ZM18.52,9.86a3.62,3.62,0,1,1,5.86,2.82l-.1.07-.23.16-.11.07-.24.13-.11.05-.27.11-.09,0-.34.09h0a3.62,3.62,0,0,1-2.75-.52h0l-.29-.21-.27-.24A3.59,3.59,0,0,1,18.52,9.86ZM14.28,44.15a5,5,0,1,1-3.52-8.51l.47,0a4.93,4.93,0,0,1,2,.64h0l.08,0a5,5,0,0,1,2,2.36h0a5,5,0,0,1,.37,1.77h0s0,.1,0,.15A5,5,0,0,1,14.28,44.15Zm17.08-8.46h0a3.63,3.63,0,0,1,.08-.65h0c0-.1,0-.21.08-.31v0c0-.09.06-.19.1-.28l0-.06.11-.24.06-.1.12-.19.11-.15.1-.13.24-.27a3.61,3.61,0,1,1,0,5.11l-.23-.25L32,37.93,32,37.85l-.15-.25v0a3.61,3.61,0,0,1-.46-1.9ZM43.17,24.46l-.27.25-.12.09-.18.13-.17.1-.14.08-.19.09-.13.06-.22.08-.11,0-.27.07-.07,0-.29,0H41l-.33,0h0l-.34,0h0a3.6,3.6,0,0,1-2.2-1h0a3.59,3.59,0,0,1-1-2.35v0a3.64,3.64,0,0,1,.08-1v-.05a3.6,3.6,0,0,1,.12-.4l0-.07a3.58,3.58,0,0,1,.19-.42l0-.06a3.58,3.58,0,0,1,.21-.33l.07-.1a3.61,3.61,0,1,1,5.41,4.75Z"/></svg>